<?xml version="1.0" encoding="utf-8"?>
<!-- Generator: Adobe Adobe Illustrator 24.2.0, SVG Export Plug-In . SVG Version: 6.00 Build 0)  -->
<svg version="1.1" id="Layer_1" xmlns="http://www.w3.org/2000/svg" xmlns:xlink="http://www.w3.org/1999/xlink" x="0px" y="0px"
	 width="1920px" height="1080px" viewBox="0 0 1920 1080" style="enable-background:new 0 0 1920 1080;" xml:space="preserve">
<style type="text/css">
	.st0{opacity:0.6;fill:#231F20;}
	.st1{fill:#F69333;}
	.st2{fill:#4E62AC;}
	.st3{font-family:'Montserrat-Black';}
	.st4{font-size:190.4123px;}
	.st5{fill:#ED388C;}
	.st6{font-size:292.8493px;}
	.st7{fill:#C77729;}
	.st8{fill:#F6BF89;}
	.st9{fill:#F6B4D1;}
	.st10{fill:#BDBEDF;}
	.st11{fill:#E1A46B;}
	.st12{fill:none;stroke:#A05325;stroke-width:10;stroke-miterlimit:10;}
</style>
<polygon class="st0" points="396.18,285.64 1558.85,274.97 1693.51,221.64 1842.85,221.64 1862.84,243.81 1842.85,265.64 
	1862.84,285.64 1841.51,310.97 1862.84,330.97 1841.51,361.64 1862.84,380.31 1842.85,402.97 1862.84,427.77 1842.85,452.31 
	1862.84,473.82 1844.18,501.64 1862.84,524.31 1844.18,544.31 1862.84,574.97 1841.51,605.64 1862.84,626.97 1838.85,650.97 
	1862.84,673.64 1842.85,696.31 1869.51,720.31 1837.51,751.2 1858.85,770.97 1840.18,796.31 1862.84,814.97 1845.51,843.98 
	1869.51,861.64 1844.18,889.64 1701.51,889.64 1582.85,843.98 401.51,843.98 324.25,870.44 268.18,889.64 114.85,896.31 
	92.18,872.31 113.52,849.64 92.18,822.97 120.18,805.64 92.18,773.64 113.52,751.2 92.18,726.97 112.18,704.31 92.18,680.31 
	112.18,656.31 92.18,632.31 117.52,602.97 92.18,580.31 118.85,558.97 92.18,536.84 118.85,510.97 92.18,486.27 118.85,460.31 
	92.18,440.31 116.18,412.31 92.18,393.64 116.18,368.31 92.18,341.64 117.52,320.31 92.18,296.31 114.85,270.97 92.18,253.64 
	117.52,228.31 260.18,221.64 "/>
<polygon class="st1" points="363.18,253.35 1525.85,242.69 1660.51,189.36 1809.85,189.36 1829.85,211.53 1809.85,233.35 
	1829.85,253.35 1808.51,278.69 1829.85,298.69 1808.51,329.35 1829.85,348.02 1809.85,370.69 1829.85,395.48 1809.85,420.02 
	1829.85,441.53 1811.18,469.35 1829.85,492.02 1811.18,512.02 1829.85,542.69 1808.51,573.35 1829.85,594.69 1805.85,618.69 
	1829.85,641.35 1809.85,664.02 1836.51,688.02 1804.51,718.92 1825.85,738.69 1807.18,764.02 1829.85,782.69 1812.51,811.7 
	1836.51,829.35 1811.18,857.35 1668.51,857.35 1549.85,811.7 368.51,811.7 291.25,838.16 235.18,857.35 81.85,864.02 59.18,840.02 
	80.52,817.35 59.18,790.69 87.18,773.35 59.18,741.35 80.52,718.92 59.18,694.69 79.18,672.02 59.18,648.02 79.18,624.02 
	59.18,600.02 84.52,570.69 59.18,548.02 85.85,526.69 59.18,504.56 85.85,478.69 59.18,453.98 85.85,428.02 59.18,408.02 
	83.18,380.02 59.18,361.35 83.18,336.02 59.18,309.35 84.52,288.02 59.18,264.02 81.85,238.69 59.18,221.35 84.52,196.02 
	227.18,189.36 "/>
<text transform="matrix(1 0 0 1 325.0809 453.9823)" class="st2 st3 st4">BAR</text>
<text transform="matrix(0.925 0 0 1 554.4416 714.2317)" class="st5 st3 st6">MATES</text>
<polygon class="st7" points="348.51,776.02 291.25,838.16 368.51,811.7 1549.85,811.7 1623.66,840.1 1573.85,785.35 "/>
<polygon class="st8" points="299.8,223.53 352.51,278.02 1545.51,254.69 1604.53,211.53 1525.85,242.69 363.18,253.35 "/>
<circle class="st9" cx="440.77" cy="609.39" r="87.5"/>
<g>
	<g>
		<path class="st10" d="M787.05,380.53c3.43,15.32,9.1,29.5,18.22,42.36c8.64,12.2,19.62,22.71,32.05,31.01
			c26.61,17.76,58.93,25.51,90.48,19.34c8.76-1.71,17.05-6.04,24.6-10.63c17.52-10.65,34.93-25.48,45.68-43.12
			c3.68-6.04,5.58-12.42,6.15-19.42c0.38-4.64,0.93-9.08,2.32-13.55c-0.54,1.63-1.08,3.26-1.62,4.89c0.95-2.82,2.09-5.54,3.5-8.16
			c3.09-5.73-3.49,4.99-0.84,1.36c0.42-0.62,0.85-1.23,1.3-1.83c2.03-2.68,0.86-1.23-3.52,4.35c0.48-0.58,0.97-1.15,1.48-1.71
			c2.6-2.85,0.97-1.16-4.89,5.07c2.8-2.62,7.17-5.74-5.28,4.62c0.57-0.5,1.15-1,1.74-1.48c3.3-2.66,1.16-1-6.41,5
			c0.61-0.46,1.23-0.91,1.86-1.34c-7.13,4.7-9.08,6-5.83,3.9c0.65-0.41,1.3-0.81,1.95-1.2c2.92-1.69,1.29-0.81-4.89,2.62
			c1.36-0.67,2.7-1.38,4.08-2.02c1.18-0.54,2.39-1.01,3.58-1.53c-8.46,3.75-2.32,0.95-0.21,0.27c7-2.27,14.22-3.75,21.49-4.85
			c-1.7,0.25-3.4,0.5-5.1,0.75c15.07-2.16,30.51-3.17,45.73-3.26c13.23-0.08,26.73,1.03,39.1,6.06c-1.04-0.44-2.08-0.87-3.13-1.31
			c9.3,3.98,17.03,10.19,22.46,18.78c5.7,9.03,8.99,19.34,14.7,28.36c12.86,20.3,38.71,25.06,60.97,26.6
			c13.63,0.94,27.35,0.55,40.89-1.19c7.14-0.91,14.38-1.87,21.36-3.72c9.84-2.61,19.15-7.03,27.89-12.18
			c15.73-9.28,29.92-21.48,42.22-34.93c6.59-7.2,12.33-15.28,16.85-23.93c4.94-9.45,7.57-19.86,11.71-29.65
			c1.25-2.95,2.64-5.85,4.18-8.66c0.6-1.1,3.43-5.85,0.74-1.39c-2.78,4.59,0.58-0.73,1.33-1.78c0.87-1.23,1.79-2.42,2.69-3.63
			c-1.33,1.67-2.66,3.33-3.99,5c0.28-0.33,0.55-0.66,0.83-0.99c0.56-0.65,1.12-1.31,1.69-1.95c0.43-0.48,0.87-0.95,1.3-1.43
			c2.87-3.21-7.66,7.73-4.54,4.77c0.62-0.59,1.24-1.19,1.86-1.79c3.33-3.26-9.31,8.13-5.73,5.15c0.5-0.41,0.98-0.83,1.47-1.25
			c4.1-3.51-6.83,5.24-6.1,4.72c0.69-0.49,1.39-1.01,2.07-1.53c3.96-3.02-5.97,3.9-5.51,3.62c1.46-0.87,2.98-1.74,4.39-2.68
			c0.92-0.61-8.17,4.27-5.06,2.77c0.77-0.37,1.53-0.77,2.3-1.14c1.35-0.64,2.74-1.2,4.11-1.81c-8.36,3.73-2.94,1.18-0.65,0.49
			c3.29-0.99,6.63-1.7,10.03-2.2c-1.7,0.25-3.4,0.5-5.1,0.75c13.94-1.77,27.65,0.92,40.56,6.22c-1.04-0.44-2.08-0.87-3.13-1.31
			c25.76,10.96,45.31,30.84,65.15,49.91c20.1,19.32,41.65,37.31,69.14,44.72c15.37,4.14,32.05,3.74,47.08-1.69
			c8.46-3.06,15.95-7.46,23.26-12.72c8.82-6.35,17.91-14.08,24.94-22.42c1.87-2.34,3.74-4.68,5.61-7.02
			c2.63-3.28,4.42-6.95,5.36-11.02c-0.25-1.1-0.5-2.2-0.75-3.31c-2.55-1.7-5.29-1.89-8.22-0.56c-3.96,1.43-7.98,2.45-12.14,3.11
			c1.7-0.25,3.4-0.5,5.1-0.75c-14.38,1.96-28.66-0.89-41.99-6.33c1.04,0.44,2.08,0.87,3.13,1.31
			c-46.42-19.59-71.64-68.56-117.8-88.64c-11.61-5.05-23.71-8.74-36.48-8.64c-15.06,0.12-29.93,4.64-43.23,11.53
			c-24.56,12.73-46.08,30.31-64.89,50.5c-10.99,11.8-20.91,25.63-27.39,40.47c-2.46,5.64-4.38,11.49-6.48,17.26
			c-1.08,2.96-2.19,5.91-3.46,8.8c-0.55,1.24-1.12,2.48-1.73,3.69c-0.55,1.09-3.55,6.24-0.65,1.47c2.51-4.13,1.26-1.95,0.64-1.13
			c-0.96,1.27-3.44,4.5,0.76-0.76c3.91-4.9,2.27-2.79,1.34-1.75c3.87-4.32,8.13-8.28,12.53-12.05c-4.35,3.72,7.2-5.56,6.18-4.82
			c-0.53,0.38,9.83-6.31,5.56-3.81c-0.4,0.23,8.95-4.46,4.58-2.59c-0.71,0.3-1.63,0.58-2.28,1c-0.39,0.25,6.38-2.28,3.76-1.52
			c-1,0.29-1.99,0.66-2.99,0.96c-1.62,0.47-3.25,0.89-4.89,1.26c-3.37,0.76-6.77,1.32-10.18,1.82c1.7-0.25,3.4-0.5,5.1-0.75
			c-14.29,1.99-28.74,2.59-43.14,1.65c-12.31-0.81-24.78-2.4-36.31-7c1.04,0.44,2.08,0.87,3.13,1.31
			c-9.47-3.99-17.17-10.08-22.62-18.85c-5.1-8.22-8.27-17.46-13.14-25.8c-9.7-16.6-27.44-24.56-45.96-27.08
			c-19.66-2.67-40.59-0.93-60.2,1.41c-12.21,1.46-24.39,3.46-35.99,7.68c-19.7,7.17-36.85,18.18-53.2,31.21
			c-16.51,13.16-32.03,29.21-42.11,47.94c-3.06,5.69-5.29,12.12-6.51,18.45c-1.05,5.44-0.72,11.04-2.22,16.41
			c0.54-1.63,1.08-3.26,1.62-4.89c-0.23,0.74-0.51,1.47-0.83,2.18c0.86-1.36,1.71-2.73,2.57-4.09
			c44.02-31.02,57.44-42.4,40.26-34.14c4.79-1.77,6.13-2.3,4.03-1.62c-2.42,0.65-4.78,1.22-7.26,1.6c1.7-0.25,3.4-0.5,5.1-0.75
			c-19.72,2.76-39.65-0.27-58.02-7.79c1.04,0.44,2.08,0.87,3.13,1.31c-34.23-14.36-62.11-43.92-70.71-80.47
			c0.25,1.1,0.5,2.2,0.75,3.31c-0.08-0.35-0.16-0.71-0.24-1.06c0.42-2.32-0.35-3.64-2.31-3.96c-2.07-1.18-4.29-1.15-6.66,0.09
			c-7.94,1.95-16.9,8.02-23.26,12.72c-8.95,6.61-17.75,13.9-24.94,22.42c-1.87,2.34-3.74,4.68-5.61,7.02
			C789.77,372.79,787.99,376.47,787.05,380.53L787.05,380.53z"/>
	</g>
</g>
<path class="st11" d="M175.29,831.64h-14c-2.76,0-5-2.24-5-5v-600c0-2.76,2.24-5,5-5h14c2.76,0,5,2.24,5,5v600
	C180.29,829.4,178.05,831.64,175.29,831.64z"/>
<path class="st11" d="M219.43,808.06h-14.29c-2.76,0-5-2.24-5-5V249.77c0-2.76,2.24-5,5-5h14.29c2.76,0,5,2.24,5,5v553.29
	C224.43,805.82,222.19,808.06,219.43,808.06z"/>
<path class="st11" d="M1749.95,831.42h-14c-2.76,0-5-2.24-5-5v-600c0-2.76,2.24-5,5-5h14c2.76,0,5,2.24,5,5v600
	C1754.95,829.18,1752.71,831.42,1749.95,831.42z"/>
<path class="st11" d="M1706.09,808.68h-14.29c-2.76,0-5-2.24-5-5V250.39c0-2.76,2.24-5,5-5h14.29c2.76,0,5,2.24,5,5v553.29
	C1711.09,806.44,1708.86,808.68,1706.09,808.68z"/>
<polygon class="st12" points="363.18,253.35 1525.85,242.69 1660.51,189.36 1809.85,189.36 1829.85,211.53 1809.85,233.35 
	1829.85,253.35 1808.51,278.69 1829.85,298.69 1808.51,329.35 1829.85,348.02 1809.85,370.69 1829.85,395.48 1809.85,420.02 
	1829.85,441.53 1811.18,469.35 1829.85,492.02 1811.18,512.02 1829.85,542.69 1808.51,573.35 1829.85,594.69 1805.85,618.69 
	1829.85,641.35 1809.85,664.02 1836.51,688.02 1804.51,718.92 1825.85,738.69 1807.18,764.02 1829.85,782.69 1812.51,811.7 
	1836.51,829.35 1811.18,857.35 1668.51,857.35 1549.85,811.7 368.51,811.7 291.25,838.16 235.18,857.35 81.85,864.02 59.18,840.02 
	80.52,817.35 59.18,790.69 87.18,773.35 59.18,741.35 80.52,718.92 59.18,694.69 79.18,672.02 59.18,648.02 79.18,624.02 
	59.18,600.02 84.52,570.69 59.18,548.02 85.85,526.69 59.18,504.56 85.85,478.69 59.18,453.98 85.85,428.02 59.18,408.02 
	83.18,380.02 59.18,361.35 83.18,336.02 59.18,309.35 84.52,288.02 59.18,264.02 81.85,238.69 59.18,221.35 84.52,196.02 
	227.18,189.36 "/>
</svg>
