<svg id="visual" viewBox="0 0 900 600" width="900" height="600" xmlns="http://www.w3.org/2000/svg" xmlns:xlink="http://www.w3.org/1999/xlink" version="1.1"><rect x="0" y="0" width="900" height="600" fill="#FF9722"></rect><path d="M0 246L15 236.3C30 226.7 60 207.3 90 191.7C120 176 150 164 180 171.2C210 178.3 240 204.7 270 209.8C300 215 330 199 360 206.3C390 213.7 420 244.3 450 250.7C480 257 510 239 540 224.5C570 210 600 199 630 183.8C660 168.7 690 149.3 720 139.8C750 130.3 780 130.7 810 140.2C840 149.7 870 168.3 885 177.7L900 187" fill="none" stroke-linecap="round" stroke-linejoin="miter" stroke="#B8C1FF" stroke-width="40"></path></svg>