<?xml version="1.0" encoding="utf-8"?>
<!-- Generator: Adobe Adobe Illustrator 24.2.0, SVG Export Plug-In . SVG Version: 6.00 Build 0)  -->
<svg version="1.1" xmlns="http://www.w3.org/2000/svg" xmlns:xlink="http://www.w3.org/1999/xlink" x="0px" y="0px" width="1920px"
	 height="1920px" viewBox="0 0 1920 1920" style="enable-background:new 0 0 1920 1920;" xml:space="preserve">
<style type="text/css">
	.st0{fill:#F79D43;}
	.st1{fill:#F43991;}
	.st2{fill:#F473A9;}
	.st3{fill:#F598BD;}
	.st4{fill:#FFB6D9;}
	.st5{fill:#4150A4;}
	.st6{font-family:'Montserrat-Black';}
	.st7{font-size:435.0348px;}
	.st8{font-size:438.609px;}
	.st9{fill:#4F73B0;}
	.st10{fill:#889CC4;}
	.st11{fill:#CFC4E0;}
</style>
<g id="Layer_0">
	<path class="st0" d="M0,1680L0,240C0,107.45,107.45,0,240,0l1440,0c132.55,0,240,107.45,240,240v1440c0,132.55-107.45,240-240,240
		H240C107.45,1920,0,1812.55,0,1680z"/>
</g>
<g id="Layer_4">
	<circle class="st1" cx="1020" cy="1574.04" r="253.29"/>
</g>
<g id="Layer_3">
	<circle class="st2" cx="1000" cy="1554.04" r="253.29"/>
</g>
<g id="Layer_5">
	<circle class="st3" cx="980" cy="1534.04" r="253.29"/>
</g>
<g id="Layer_6">
	<circle class="st4" cx="960" cy="1514.04" r="253.29"/>
</g>
<g id="Layer_7">
	<text transform="matrix(1 0 0 1 152.8282 760.4402)" class="st5 st6 st7">BAR</text>
</g>
<g id="Layer_8">
	<text transform="matrix(1 0 0 1 138.9292 1168.9409)" class="st1 st6 st8">MATES</text>
</g>
<g id="Layer_9">
	<g>
		<g>
			<path class="st5" d="M1260.46,596.47c2.01,23.62,6.11,47.17,12.8,69.92c5.02,17.06,11.59,34.04,21.34,48.99
				c7.44,11.4,16.69,21.04,29.73,25.66c6.25,2.22,12.56,1.64,18.98,0.25c9.27-2.01,17.92-7.28,25.66-12.45
				c11.61-7.75,22.74-16.88,31.88-27.51c4.61-5.36,9.27-11.15,12.26-17.63c6.16-13.36,4.62-28.07,5.74-42.31
				c0.98-12.43,3.29-24.77,7.21-36.62c-0.54,1.63-1.08,3.26-1.62,4.89c2.41-7.16,5.4-14.12,9.3-20.59
				c-1.25,2.04-2.49,4.09-3.74,6.13c1.37-2.23,2.84-4.39,4.46-6.45c-1.87,2.34-3.74,4.68-5.61,7.02c0.59-0.74,1.2-1.46,1.83-2.17
				c3.61-4.07-5.81,5.97-5.17,5.37c0.29-0.29,0.59-0.58,0.89-0.87c2.7-2.57,0.33-0.45-7.11,6.38c5.38-4.48-10.95,8.34-5.5,4.26
				c3.9-2.92-10.4,6.6-6.25,4.18c0.62-0.36,1.23-0.73,1.85-1.08c-2.63,1.43-5.26,2.87-7.88,4.3c1.82-0.98,3.69-1.84,5.62-2.6
				c-2.23,0.87-4.46,1.74-6.68,2.62c6.06-2.29,12.42-3.39,18.8-4.35c-1.7,0.25-3.4,0.5-5.1,0.75c7.47-1.09,15.16-1.38,22.28,1.53
				c-1.04-0.44-2.08-0.87-3.13-1.31c15.36,6.57,20.89,24.73,24.26,39.64c-0.25-1.1-0.5-2.2-0.74-3.31
				c4.07,18.29,5.69,37.41,11.92,55.17c2.71,7.72,6.69,15.25,12.94,20.68c5.7,4.95,13.29,7.93,20.61,9.45
				c13.89,2.89,27.81-0.77,40.64-6.04c8.53-3.5,16.69-8.74,24.1-14.18c13.75-10.09,26.28-21.76,36.58-35.38
				c13.14-17.39,16.69-39.44,19.64-60.47c3.12-22.24,6.13-44.35,13.17-65.77c-0.54,1.63-1.08,3.26-1.62,4.89
				c3.26-9.8,7.2-19.46,12.57-28.31c-1.25,2.04-2.49,4.09-3.74,6.13c1.41-2.28,2.92-4.49,4.57-6.6c-1.87,2.34-3.74,4.68-5.61,7.02
				c0.63-0.79,1.27-1.56,1.94-2.31c3.45-3.85-9.01,9.29-4.8,5.06c1.62-1.63-10.72,9.46-7.25,6.55c3.52-2.96-9.68,7.47-7.76,6.05
				c3.54-2.63-10.49,6.66-7.09,4.71c0.39-0.22,0.77-0.46,1.16-0.68c-2.63,1.43-5.26,2.87-7.88,4.3c0.77-0.4,1.54-0.76,2.34-1.08
				c-2.23,0.87-4.46,1.74-6.68,2.62c1.09-0.4,2.19-0.69,3.34-0.88c-1.7,0.25-3.4,0.5-5.1,0.75c3.1-0.42,6.09,0.05,8.99,1.19
				c-1.04-0.44-2.08-0.87-3.13-1.31c11.91,4.99,19.82,17.92,25.86,28.68c7.81,13.89,13.75,28.79,19.64,43.56
				c5.83,14.62,11.45,29.36,18.1,43.64c6.11,13.15,13.14,27.04,24.17,36.79c5.01,4.42,11.95,8.48,18.8,8.52
				c6.53,0.04,12.79-2.18,18.63-4.88c15.11-6.97,28.55-18,40.51-29.38c3.68-3.4,7.02-7.08,10.03-11.06
				c2.58-2.93,4.76-6.14,6.54-9.64c1.41-3.2,3.27-9.02-2.25-9.5c-1.7,0.25-3.4,0.5-5.1,0.75c-5.14,1.69-10,3.99-14.57,6.92
				c-9.53,5.92-18.29,12.94-26.41,20.67c-2.96,2.81-0.57,0.66,7.18-6.45c-3.14,2.59-0.58,0.59,7.69-6c7.94-5.18,10.35-6.8,7.26-4.84
				c-0.32,0.19-0.64,0.38-0.96,0.55c2.63-1.43,5.26-2.87,7.88-4.3c-0.64,0.33-1.28,0.63-1.94,0.9c2.23-0.87,4.46-1.74,6.68-2.62
				c-1.12,0.42-2.24,0.72-3.42,0.92c1.7-0.25,3.4-0.5,5.1-0.75c-3.23,0.44-6.35-0.1-9.36-1.31c1.04,0.44,2.08,0.87,3.13,1.31
				c-10.18-4.37-17.4-14.41-23-23.54c-6.68-10.9-11.84-22.73-16.75-34.51c-10.14-24.31-18.42-49.8-31.54-72.74
				c-5.35-9.35-11.81-19.43-21.06-25.39c-4.03-2.6-9.04-4.87-13.93-4.88c-3.46-0.01-7.05,0.56-10.34,1.63
				c-10.14,3.32-19.27,8.98-27.93,15.1c-21.76,15.39-40.84,35.73-52.25,60c-5.85,12.45-10.07,25.8-13.41,39.12
				c-3.64,14.53-5.74,29.31-7.77,44.12c-1.86,13.64-3.57,27.54-7.87,40.67c0.54-1.63,1.08-3.26,1.62-4.89
				c-1.35,4.01-2.99,7.88-5.19,11.5c1.25-2.04,2.49-4.09,3.74-6.13c-0.75,1.18-1.55,2.32-2.41,3.42c1.87-2.34,3.74-4.68,5.61-7.02
				c-0.27,0.34-0.55,0.67-0.83,1c-2.46,2.77-0.48,0.71,5.95-6.17c-4.49,4.32,10.38-9.04,6.42-5.74c8.42-6.48,11.01-8.5,7.78-6.08
				c-2.99,2.14-0.54,0.52,7.34-4.87c-0.6,0.37-1.2,0.74-1.82,1.09c2.63-1.43,5.26-2.87,7.88-4.3c-1.48,0.81-3.01,1.51-4.58,2.13
				c2.23-0.87,4.46-1.74,6.68-2.62c-3.82,1.46-7.71,2.52-11.75,3.14c1.7-0.25,3.4-0.5,5.1-0.75c-8.53,1.15-17.34,0.18-25.32-3.11
				c1.04,0.44,2.08,0.87,3.13,1.31c-16-6.82-22.07-23.77-25.67-39.55c0.25,1.1,0.5,2.2,0.75,3.31c-2.22-9.87-3.77-19.87-5.67-29.8
				c-1.95-10.18-4.02-20.58-8.02-30.19c-2.95-7.09-7.13-14.03-13.48-18.56c-5.37-3.83-12.15-6.15-18.73-6.53
				c-7.53-0.44-15.21,1.07-22.57,2.36c-17.05,2.97-32.13,11.47-46.18,21.29c-19.62,13.71-36.63,31.16-48.93,51.68
				c-5.05,8.42-8.37,17.51-11.36,26.82c-3.55,11.02-5.67,22.48-6.67,34.01c-1.02,11.84,0.37,24.46-3.17,35.94
				c0.54-1.63,1.08-3.26,1.62-4.89c-0.59,1.76-1.32,3.42-2.28,5.01c1.25-2.04,2.49-4.09,3.74-6.13c-0.32,0.48-0.65,0.95-1,1.41
				c1.87-2.34,3.74-4.68,5.61-7.02c-2.35,2.83-0.3,0.71,6.17-6.36c-2.96,2.86-0.32,0.65,7.94-6.61c8.58-6.87,11.22-9.1,7.92-6.69
				c8.16-5.23,10.67-6.92,7.55-5.08c2.63-1.43,5.26-2.87,7.88-4.3c-0.63,0.34-1.26,0.64-1.92,0.92c2.23-0.87,4.46-1.74,6.68-2.62
				c-1.86,0.73-3.77,1.25-5.75,1.55c1.7-0.25,3.4-0.5,5.1-0.75c-4.68,0.65-9.33-0.09-13.69-1.87c1.04,0.44,2.08,0.87,3.13,1.31
				c-9.84-4.15-17.39-12.57-23.36-21.17c-8.5-12.25-14.59-26.13-19.45-40.17c-3.34-9.67-6.06-19.54-8.33-29.51
				c0.25,1.1,0.5,2.2,0.75,3.31c-3.6-15.99-5.99-32.22-7.37-48.54c0.42-2.32-0.35-3.64-2.31-3.96c-2.07-1.18-4.29-1.15-6.66,0.09
				c-3.75,1.14-7.29,2.73-10.63,4.77c-4.44,2.27-8.65,4.92-12.64,7.96c-8.95,6.61-17.75,13.9-24.94,22.42
				c-1.87,2.34-3.74,4.68-5.61,7.02C1263.19,588.73,1261.4,592.41,1260.46,596.47L1260.46,596.47z"/>
		</g>
	</g>
</g>
<g id="Layer_10">
	<g>
		<g>
			<path class="st9" d="M1240.46,576.47c2.01,23.62,6.11,47.17,12.8,69.92c5.02,17.06,11.59,34.04,21.34,48.99
				c7.44,11.4,16.69,21.04,29.73,25.66c6.25,2.22,12.56,1.64,18.98,0.25c9.27-2.01,17.92-7.28,25.66-12.45
				c11.61-7.75,22.74-16.88,31.88-27.51c4.61-5.36,9.27-11.15,12.26-17.63c6.16-13.36,4.62-28.07,5.74-42.31
				c0.98-12.43,3.29-24.77,7.21-36.62c-0.54,1.63-1.08,3.26-1.62,4.89c2.41-7.16,5.4-14.12,9.3-20.59
				c-1.25,2.04-2.49,4.09-3.74,6.13c1.37-2.23,2.84-4.39,4.46-6.45c-1.87,2.34-3.74,4.68-5.61,7.02c0.59-0.74,1.2-1.46,1.83-2.17
				c3.61-4.07-5.81,5.97-5.17,5.37c0.29-0.29,0.59-0.58,0.89-0.87c2.7-2.57,0.33-0.45-7.11,6.38c5.38-4.48-10.95,8.34-5.5,4.26
				c3.9-2.92-10.4,6.6-6.25,4.18c0.62-0.36,1.23-0.73,1.85-1.08c-2.63,1.43-5.26,2.87-7.88,4.3c1.82-0.98,3.69-1.84,5.62-2.6
				c-2.23,0.87-4.46,1.74-6.68,2.62c6.06-2.29,12.42-3.39,18.8-4.35c-1.7,0.25-3.4,0.5-5.1,0.75c7.47-1.09,15.16-1.38,22.28,1.53
				c-1.04-0.44-2.08-0.87-3.13-1.31c15.36,6.57,20.89,24.73,24.26,39.64c-0.25-1.1-0.5-2.2-0.74-3.31
				c4.07,18.29,5.69,37.41,11.92,55.17c2.71,7.72,6.69,15.25,12.94,20.68c5.7,4.95,13.29,7.93,20.61,9.45
				c13.89,2.89,27.81-0.77,40.64-6.04c8.53-3.5,16.69-8.74,24.1-14.18c13.75-10.09,26.28-21.76,36.58-35.38
				c13.14-17.39,16.69-39.44,19.64-60.47c3.12-22.24,6.13-44.35,13.17-65.77c-0.54,1.63-1.08,3.26-1.62,4.89
				c3.26-9.8,7.2-19.46,12.57-28.31c-1.25,2.04-2.49,4.09-3.74,6.13c1.41-2.28,2.92-4.49,4.57-6.6c-1.87,2.34-3.74,4.68-5.61,7.02
				c0.63-0.79,1.27-1.56,1.94-2.31c3.45-3.85-9.01,9.29-4.8,5.06c1.62-1.63-10.72,9.46-7.25,6.55c3.52-2.96-9.68,7.47-7.76,6.05
				c3.54-2.63-10.49,6.66-7.09,4.71c0.39-0.22,0.77-0.46,1.16-0.68c-2.63,1.43-5.26,2.87-7.88,4.3c0.77-0.4,1.54-0.76,2.34-1.08
				c-2.23,0.87-4.46,1.74-6.68,2.62c1.09-0.4,2.19-0.69,3.34-0.88c-1.7,0.25-3.4,0.5-5.1,0.75c3.1-0.42,6.09,0.05,8.99,1.19
				c-1.04-0.44-2.08-0.87-3.13-1.31c11.91,4.99,19.82,17.92,25.86,28.68c7.81,13.89,13.75,28.79,19.64,43.56
				c5.83,14.62,11.45,29.36,18.1,43.64c6.11,13.15,13.14,27.04,24.17,36.79c5.01,4.42,11.95,8.48,18.8,8.52
				c6.53,0.04,12.79-2.18,18.63-4.88c15.11-6.97,28.55-18,40.51-29.38c3.68-3.4,7.02-7.08,10.03-11.06
				c2.58-2.93,4.76-6.14,6.54-9.64c1.41-3.2,3.27-9.02-2.25-9.5c-1.7,0.25-3.4,0.5-5.1,0.75c-5.14,1.69-10,3.99-14.57,6.92
				c-9.53,5.92-18.29,12.94-26.41,20.67c-2.96,2.81-0.57,0.66,7.18-6.45c-3.14,2.59-0.58,0.59,7.69-6c7.94-5.18,10.35-6.8,7.26-4.84
				c-0.32,0.19-0.64,0.38-0.96,0.55c2.63-1.43,5.26-2.87,7.88-4.3c-0.64,0.33-1.28,0.63-1.94,0.9c2.23-0.87,4.46-1.74,6.68-2.62
				c-1.12,0.42-2.24,0.72-3.42,0.92c1.7-0.25,3.4-0.5,5.1-0.75c-3.23,0.44-6.35-0.1-9.36-1.31c1.04,0.44,2.08,0.87,3.13,1.31
				c-10.18-4.37-17.4-14.41-23-23.54c-6.68-10.9-11.84-22.73-16.75-34.51c-10.14-24.31-18.42-49.8-31.54-72.74
				c-5.35-9.35-11.81-19.43-21.06-25.39c-4.03-2.6-9.04-4.87-13.93-4.88c-3.46-0.01-7.05,0.56-10.34,1.63
				c-10.14,3.32-19.27,8.98-27.93,15.1c-21.76,15.39-40.84,35.73-52.25,60c-5.85,12.45-10.07,25.8-13.41,39.12
				c-3.64,14.53-5.74,29.31-7.77,44.12c-1.86,13.64-3.57,27.54-7.87,40.67c0.54-1.63,1.08-3.26,1.62-4.89
				c-1.35,4.01-2.99,7.88-5.19,11.5c1.25-2.04,2.49-4.09,3.74-6.13c-0.75,1.18-1.55,2.32-2.41,3.42c1.87-2.34,3.74-4.68,5.61-7.02
				c-0.27,0.34-0.55,0.67-0.83,1c-2.46,2.77-0.48,0.71,5.95-6.17c-4.49,4.32,10.38-9.04,6.42-5.74c8.42-6.48,11.01-8.5,7.78-6.08
				c-2.99,2.14-0.54,0.52,7.34-4.87c-0.6,0.37-1.2,0.74-1.82,1.09c2.63-1.43,5.26-2.87,7.88-4.3c-1.48,0.81-3.01,1.51-4.58,2.13
				c2.23-0.87,4.46-1.74,6.68-2.62c-3.82,1.46-7.71,2.52-11.75,3.14c1.7-0.25,3.4-0.5,5.1-0.75c-8.53,1.15-17.34,0.18-25.32-3.11
				c1.04,0.44,2.08,0.87,3.13,1.31c-16-6.82-22.07-23.77-25.67-39.55c0.25,1.1,0.5,2.2,0.75,3.31c-2.22-9.87-3.77-19.87-5.67-29.8
				c-1.95-10.18-4.02-20.58-8.02-30.19c-2.95-7.09-7.13-14.03-13.48-18.56c-5.37-3.83-12.15-6.15-18.73-6.53
				c-7.53-0.44-15.21,1.07-22.57,2.36c-17.05,2.97-32.13,11.47-46.18,21.29c-19.62,13.71-36.63,31.16-48.93,51.68
				c-5.05,8.42-8.37,17.51-11.36,26.82c-3.55,11.02-5.67,22.48-6.67,34.01c-1.02,11.84,0.37,24.46-3.17,35.94
				c0.54-1.63,1.08-3.26,1.62-4.89c-0.59,1.76-1.32,3.42-2.28,5.01c1.25-2.04,2.49-4.09,3.74-6.13c-0.32,0.48-0.65,0.95-1,1.41
				c1.87-2.34,3.74-4.68,5.61-7.02c-2.35,2.83-0.3,0.71,6.17-6.36c-2.96,2.86-0.32,0.65,7.94-6.61c8.58-6.87,11.22-9.1,7.92-6.69
				c8.16-5.23,10.67-6.92,7.55-5.08c2.63-1.43,5.26-2.87,7.88-4.3c-0.63,0.34-1.26,0.64-1.92,0.92c2.23-0.87,4.46-1.74,6.68-2.62
				c-1.86,0.73-3.77,1.25-5.75,1.55c1.7-0.25,3.4-0.5,5.1-0.75c-4.68,0.65-9.33-0.09-13.69-1.87c1.04,0.44,2.08,0.87,3.13,1.31
				c-9.84-4.15-17.39-12.57-23.36-21.17c-8.5-12.25-14.59-26.13-19.45-40.17c-3.34-9.67-6.06-19.54-8.33-29.51
				c0.25,1.1,0.5,2.2,0.75,3.31c-3.6-15.99-5.99-32.22-7.37-48.54c0.42-2.32-0.35-3.64-2.31-3.96c-2.07-1.18-4.29-1.15-6.66,0.09
				c-3.75,1.14-7.29,2.73-10.63,4.77c-4.44,2.27-8.65,4.92-12.64,7.96c-8.95,6.61-17.75,13.9-24.94,22.42
				c-1.87,2.34-3.74,4.68-5.61,7.02C1243.19,568.73,1241.4,572.41,1240.46,576.47L1240.46,576.47z"/>
		</g>
	</g>
</g>
<g id="Layer_11">
	<g>
		<g>
			<path class="st10" d="M1220.46,556.47c2.01,23.62,6.11,47.17,12.8,69.92c5.02,17.06,11.59,34.04,21.34,48.99
				c7.44,11.4,16.69,21.04,29.73,25.66c6.25,2.22,12.56,1.64,18.98,0.25c9.27-2.01,17.92-7.28,25.66-12.45
				c11.61-7.75,22.74-16.88,31.88-27.51c4.61-5.36,9.27-11.15,12.26-17.63c6.16-13.36,4.62-28.07,5.74-42.31
				c0.98-12.43,3.29-24.77,7.21-36.62c-0.54,1.63-1.08,3.26-1.62,4.89c2.41-7.16,5.4-14.12,9.3-20.59
				c-1.25,2.04-2.49,4.09-3.74,6.13c1.37-2.23,2.84-4.39,4.46-6.45c-1.87,2.34-3.74,4.68-5.61,7.02c0.59-0.74,1.2-1.46,1.83-2.17
				c3.61-4.07-5.81,5.97-5.17,5.37c0.29-0.29,0.59-0.58,0.89-0.87c2.7-2.57,0.33-0.45-7.11,6.38c5.38-4.48-10.95,8.34-5.5,4.26
				c3.9-2.92-10.4,6.6-6.25,4.18c0.62-0.36,1.23-0.73,1.85-1.08c-2.63,1.43-5.26,2.87-7.88,4.3c1.82-0.98,3.69-1.84,5.62-2.6
				c-2.23,0.87-4.46,1.74-6.68,2.62c6.06-2.29,12.42-3.39,18.8-4.35c-1.7,0.25-3.4,0.5-5.1,0.75c7.47-1.09,15.16-1.38,22.28,1.53
				c-1.04-0.44-2.08-0.87-3.13-1.31c15.36,6.57,20.89,24.73,24.26,39.64c-0.25-1.1-0.5-2.2-0.74-3.31
				c4.07,18.29,5.69,37.41,11.92,55.17c2.71,7.72,6.69,15.25,12.94,20.68c5.7,4.95,13.29,7.93,20.61,9.45
				c13.89,2.89,27.81-0.77,40.64-6.04c8.53-3.5,16.69-8.74,24.1-14.18c13.75-10.09,26.28-21.76,36.58-35.38
				c13.14-17.39,16.69-39.44,19.64-60.47c3.12-22.24,6.13-44.35,13.17-65.77c-0.54,1.63-1.08,3.26-1.62,4.89
				c3.26-9.8,7.2-19.46,12.57-28.31c-1.25,2.04-2.49,4.09-3.74,6.13c1.41-2.28,2.92-4.49,4.57-6.6c-1.87,2.34-3.74,4.68-5.61,7.02
				c0.63-0.79,1.27-1.56,1.94-2.31c3.45-3.85-9.01,9.29-4.8,5.06c1.62-1.63-10.72,9.46-7.25,6.55c3.52-2.96-9.68,7.47-7.76,6.05
				c3.54-2.63-10.49,6.66-7.09,4.71c0.39-0.22,0.77-0.46,1.16-0.68c-2.63,1.43-5.26,2.87-7.88,4.3c0.77-0.4,1.54-0.76,2.34-1.08
				c-2.23,0.87-4.46,1.74-6.68,2.62c1.09-0.4,2.19-0.69,3.34-0.88c-1.7,0.25-3.4,0.5-5.1,0.75c3.1-0.42,6.09,0.05,8.99,1.19
				c-1.04-0.44-2.08-0.87-3.13-1.31c11.91,4.99,19.82,17.92,25.86,28.68c7.81,13.89,13.75,28.79,19.64,43.56
				c5.83,14.62,11.45,29.36,18.1,43.64c6.11,13.15,13.14,27.04,24.17,36.79c5.01,4.42,11.95,8.48,18.8,8.52
				c6.53,0.04,12.79-2.18,18.63-4.88c15.11-6.97,28.55-18,40.51-29.38c3.68-3.4,7.02-7.08,10.03-11.06
				c2.58-2.93,4.76-6.14,6.54-9.64c1.41-3.2,3.27-9.02-2.25-9.5c-1.7,0.25-3.4,0.5-5.1,0.75c-5.14,1.69-10,3.99-14.57,6.92
				c-9.53,5.92-18.29,12.94-26.41,20.67c-2.96,2.81-0.57,0.66,7.18-6.45c-3.14,2.59-0.58,0.59,7.69-6c7.94-5.18,10.35-6.8,7.26-4.84
				c-0.32,0.19-0.64,0.38-0.96,0.55c2.63-1.43,5.26-2.87,7.88-4.3c-0.64,0.33-1.28,0.63-1.94,0.9c2.23-0.87,4.46-1.74,6.68-2.62
				c-1.12,0.42-2.24,0.72-3.42,0.92c1.7-0.25,3.4-0.5,5.1-0.75c-3.23,0.44-6.35-0.1-9.36-1.31c1.04,0.44,2.08,0.87,3.13,1.31
				c-10.18-4.37-17.4-14.41-23-23.54c-6.68-10.9-11.84-22.73-16.75-34.51c-10.14-24.31-18.42-49.8-31.54-72.74
				c-5.35-9.35-11.81-19.43-21.06-25.39c-4.03-2.6-9.04-4.87-13.93-4.88c-3.46-0.01-7.05,0.56-10.34,1.63
				c-10.14,3.32-19.27,8.98-27.93,15.1c-21.76,15.39-40.84,35.73-52.25,60c-5.85,12.45-10.07,25.8-13.41,39.12
				c-3.64,14.53-5.74,29.31-7.77,44.12c-1.86,13.64-3.57,27.54-7.87,40.67c0.54-1.63,1.08-3.26,1.62-4.89
				c-1.35,4.01-2.99,7.88-5.19,11.5c1.25-2.04,2.49-4.09,3.74-6.13c-0.75,1.18-1.55,2.32-2.41,3.42c1.87-2.34,3.74-4.68,5.61-7.02
				c-0.27,0.34-0.55,0.67-0.83,1c-2.46,2.77-0.48,0.71,5.95-6.17c-4.49,4.32,10.38-9.04,6.42-5.74c8.42-6.48,11.01-8.5,7.78-6.08
				c-2.99,2.14-0.54,0.52,7.34-4.87c-0.6,0.37-1.2,0.74-1.82,1.09c2.63-1.43,5.26-2.87,7.88-4.3c-1.48,0.81-3.01,1.51-4.58,2.13
				c2.23-0.87,4.46-1.74,6.68-2.62c-3.82,1.46-7.71,2.52-11.75,3.14c1.7-0.25,3.4-0.5,5.1-0.75c-8.53,1.15-17.34,0.18-25.32-3.11
				c1.04,0.44,2.08,0.87,3.13,1.31c-16-6.82-22.07-23.77-25.67-39.55c0.25,1.1,0.5,2.2,0.75,3.31c-2.22-9.87-3.77-19.87-5.67-29.8
				c-1.95-10.18-4.02-20.58-8.02-30.19c-2.95-7.09-7.13-14.03-13.48-18.56c-5.37-3.83-12.15-6.15-18.73-6.53
				c-7.53-0.44-15.21,1.07-22.57,2.36c-17.05,2.97-32.13,11.47-46.18,21.29c-19.62,13.71-36.63,31.16-48.93,51.68
				c-5.05,8.42-8.37,17.51-11.36,26.82c-3.55,11.02-5.67,22.48-6.67,34.01c-1.02,11.84,0.37,24.46-3.17,35.94
				c0.54-1.63,1.08-3.26,1.62-4.89c-0.59,1.76-1.32,3.42-2.28,5.01c1.25-2.04,2.49-4.09,3.74-6.13c-0.32,0.48-0.65,0.95-1,1.41
				c1.87-2.34,3.74-4.68,5.61-7.02c-2.35,2.83-0.3,0.71,6.17-6.36c-2.96,2.86-0.32,0.65,7.94-6.61c8.58-6.87,11.22-9.1,7.92-6.69
				c8.16-5.23,10.67-6.92,7.55-5.08c2.63-1.43,5.26-2.87,7.88-4.3c-0.63,0.34-1.26,0.64-1.92,0.92c2.23-0.87,4.46-1.74,6.68-2.62
				c-1.86,0.73-3.77,1.25-5.75,1.55c1.7-0.25,3.4-0.5,5.1-0.75c-4.68,0.65-9.33-0.09-13.69-1.87c1.04,0.44,2.08,0.87,3.13,1.31
				c-9.84-4.15-17.39-12.57-23.36-21.17c-8.5-12.25-14.59-26.13-19.45-40.17c-3.34-9.67-6.06-19.54-8.33-29.51
				c0.25,1.1,0.5,2.2,0.75,3.31c-3.6-15.99-5.99-32.22-7.37-48.54c0.42-2.32-0.35-3.64-2.31-3.96c-2.07-1.18-4.29-1.15-6.66,0.09
				c-3.75,1.14-7.29,2.73-10.63,4.77c-4.44,2.27-8.65,4.92-12.64,7.96c-8.95,6.61-17.75,13.9-24.94,22.42
				c-1.87,2.34-3.74,4.68-5.61,7.02C1223.19,548.73,1221.4,552.41,1220.46,556.47L1220.46,556.47z"/>
		</g>
	</g>
</g>
<g id="Layer_12">
	<g>
		<g>
			<path class="st11" d="M1200.46,536.47c2.01,23.62,6.11,47.17,12.8,69.92c5.02,17.06,11.59,34.04,21.34,48.99
				c7.44,11.4,16.69,21.04,29.73,25.66c6.25,2.22,12.56,1.64,18.98,0.25c9.27-2.01,17.92-7.28,25.66-12.45
				c11.61-7.75,22.74-16.88,31.88-27.51c4.61-5.36,9.27-11.15,12.26-17.63c6.16-13.36,4.62-28.07,5.74-42.31
				c0.98-12.43,3.29-24.77,7.21-36.62c-0.54,1.63-1.08,3.26-1.62,4.89c2.41-7.16,5.4-14.12,9.3-20.59
				c-1.25,2.04-2.49,4.09-3.74,6.13c1.37-2.23,2.84-4.39,4.46-6.45c-1.87,2.34-3.74,4.68-5.61,7.02c0.59-0.74,1.2-1.46,1.83-2.17
				c3.61-4.07-5.81,5.97-5.17,5.37c0.29-0.29,0.59-0.58,0.89-0.87c2.7-2.57,0.33-0.45-7.11,6.38c5.38-4.48-10.95,8.34-5.5,4.26
				c3.9-2.92-10.4,6.6-6.25,4.18c0.62-0.36,1.23-0.73,1.85-1.08c-2.63,1.43-5.26,2.87-7.88,4.3c1.82-0.98,3.69-1.84,5.62-2.6
				c-2.23,0.87-4.46,1.74-6.68,2.62c6.06-2.29,12.42-3.39,18.8-4.35c-1.7,0.25-3.4,0.5-5.1,0.75c7.47-1.09,15.16-1.38,22.28,1.53
				c-1.04-0.44-2.08-0.87-3.13-1.31c15.36,6.57,20.89,24.73,24.26,39.64c-0.25-1.1-0.5-2.2-0.74-3.31
				c4.07,18.29,5.69,37.41,11.92,55.17c2.71,7.72,6.69,15.25,12.94,20.68c5.7,4.95,13.29,7.93,20.61,9.45
				c13.89,2.89,27.81-0.77,40.64-6.04c8.53-3.5,16.69-8.74,24.1-14.18c13.75-10.09,26.28-21.76,36.58-35.38
				c13.14-17.39,16.69-39.44,19.64-60.47c3.12-22.24,6.13-44.35,13.17-65.77c-0.54,1.63-1.08,3.26-1.62,4.89
				c3.26-9.8,7.2-19.46,12.57-28.31c-1.25,2.04-2.49,4.09-3.74,6.13c1.41-2.28,2.92-4.49,4.57-6.6c-1.87,2.34-3.74,4.68-5.61,7.02
				c0.63-0.79,1.27-1.56,1.94-2.31c3.45-3.85-9.01,9.29-4.8,5.06c1.62-1.63-10.72,9.46-7.25,6.55c3.52-2.96-9.68,7.47-7.76,6.05
				c3.54-2.63-10.49,6.66-7.09,4.71c0.39-0.22,0.77-0.46,1.16-0.68c-2.63,1.43-5.26,2.87-7.88,4.3c0.77-0.4,1.54-0.76,2.34-1.08
				c-2.23,0.87-4.46,1.74-6.68,2.62c1.09-0.4,2.19-0.69,3.34-0.88c-1.7,0.25-3.4,0.5-5.1,0.75c3.1-0.42,6.09,0.05,8.99,1.19
				c-1.04-0.44-2.08-0.87-3.13-1.31c11.91,4.99,19.82,17.92,25.86,28.68c7.81,13.89,13.75,28.79,19.64,43.56
				c5.83,14.62,11.45,29.36,18.1,43.64c6.11,13.15,13.14,27.04,24.17,36.79c5.01,4.42,11.95,8.48,18.8,8.52
				c6.53,0.04,12.79-2.18,18.63-4.88c15.11-6.97,28.55-18,40.51-29.38c3.68-3.4,7.02-7.08,10.03-11.06
				c2.58-2.93,4.76-6.14,6.54-9.64c1.41-3.2,3.27-9.02-2.25-9.5c-1.7,0.25-3.4,0.5-5.1,0.75c-5.14,1.69-10,3.99-14.57,6.92
				c-9.53,5.92-18.29,12.94-26.41,20.67c-2.96,2.81-0.57,0.66,7.18-6.45c-3.14,2.59-0.58,0.59,7.69-6c7.94-5.18,10.35-6.8,7.26-4.84
				c-0.32,0.19-0.64,0.38-0.96,0.55c2.63-1.43,5.26-2.87,7.88-4.3c-0.64,0.33-1.28,0.63-1.94,0.9c2.23-0.87,4.46-1.74,6.68-2.62
				c-1.12,0.42-2.24,0.72-3.42,0.92c1.7-0.25,3.4-0.5,5.1-0.75c-3.23,0.44-6.35-0.1-9.36-1.31c1.04,0.44,2.08,0.87,3.13,1.31
				c-10.18-4.37-17.4-14.41-23-23.54c-6.68-10.9-11.84-22.73-16.75-34.51c-10.14-24.31-18.42-49.8-31.54-72.74
				c-5.35-9.35-11.81-19.43-21.06-25.39c-4.03-2.6-9.04-4.87-13.93-4.88c-3.46-0.01-7.05,0.56-10.34,1.63
				c-10.14,3.32-19.27,8.98-27.93,15.1c-21.76,15.39-40.84,35.73-52.25,60c-5.85,12.45-10.07,25.8-13.41,39.12
				c-3.64,14.53-5.74,29.31-7.77,44.12c-1.86,13.64-3.57,27.54-7.87,40.67c0.54-1.63,1.08-3.26,1.62-4.89
				c-1.35,4.01-2.99,7.88-5.19,11.5c1.25-2.04,2.49-4.09,3.74-6.13c-0.75,1.18-1.55,2.32-2.41,3.42c1.87-2.34,3.74-4.68,5.61-7.02
				c-0.27,0.34-0.55,0.67-0.83,1c-2.46,2.77-0.48,0.71,5.95-6.17c-4.49,4.32,10.38-9.04,6.42-5.74c8.42-6.48,11.01-8.5,7.78-6.08
				c-2.99,2.14-0.54,0.52,7.34-4.87c-0.6,0.37-1.2,0.74-1.82,1.09c2.63-1.43,5.26-2.87,7.88-4.3c-1.48,0.81-3.01,1.51-4.58,2.13
				c2.23-0.87,4.46-1.74,6.68-2.62c-3.82,1.46-7.71,2.52-11.75,3.14c1.7-0.25,3.4-0.5,5.1-0.75c-8.53,1.15-17.34,0.18-25.32-3.11
				c1.04,0.44,2.08,0.87,3.13,1.31c-16-6.82-22.07-23.77-25.67-39.55c0.25,1.1,0.5,2.2,0.75,3.31c-2.22-9.87-3.77-19.87-5.67-29.8
				c-1.95-10.18-4.02-20.58-8.02-30.19c-2.95-7.09-7.13-14.03-13.48-18.56c-5.37-3.83-12.15-6.15-18.73-6.53
				c-7.53-0.44-15.21,1.07-22.57,2.36c-17.05,2.97-32.13,11.47-46.18,21.29c-19.62,13.71-36.63,31.16-48.93,51.68
				c-5.05,8.42-8.37,17.51-11.36,26.82c-3.55,11.02-5.67,22.48-6.67,34.01c-1.02,11.84,0.37,24.46-3.17,35.94
				c0.54-1.63,1.08-3.26,1.62-4.89c-0.59,1.76-1.32,3.42-2.28,5.01c1.25-2.04,2.49-4.09,3.74-6.13c-0.32,0.48-0.65,0.95-1,1.41
				c1.87-2.34,3.74-4.68,5.61-7.02c-2.35,2.83-0.3,0.71,6.17-6.36c-2.96,2.86-0.32,0.65,7.94-6.61c8.58-6.87,11.22-9.1,7.92-6.69
				c8.16-5.23,10.67-6.92,7.55-5.08c2.63-1.43,5.26-2.87,7.88-4.3c-0.63,0.34-1.26,0.64-1.92,0.92c2.23-0.87,4.46-1.74,6.68-2.62
				c-1.86,0.73-3.77,1.25-5.75,1.55c1.7-0.25,3.4-0.5,5.1-0.75c-4.68,0.65-9.33-0.09-13.69-1.87c1.04,0.44,2.08,0.87,3.13,1.31
				c-9.84-4.15-17.39-12.57-23.36-21.17c-8.5-12.25-14.59-26.13-19.45-40.17c-3.34-9.67-6.06-19.54-8.33-29.51
				c0.25,1.1,0.5,2.2,0.75,3.31c-3.6-15.99-5.99-32.22-7.37-48.54c0.42-2.32-0.35-3.64-2.31-3.96c-2.07-1.18-4.29-1.15-6.66,0.09
				c-3.75,1.14-7.29,2.73-10.63,4.77c-4.44,2.27-8.65,4.92-12.64,7.96c-8.95,6.61-17.75,13.9-24.94,22.42
				c-1.87,2.34-3.74,4.68-5.61,7.02C1203.19,528.73,1201.4,532.41,1200.46,536.47L1200.46,536.47z"/>
		</g>
	</g>
</g>
</svg>
